# xmcd CD database file
#
# Track frame offsets:
#	150
#	24680
#	48207
#	75509
#	106381
#	133537
#
# Disc length: 2155 seconds
#
# Revision: 0
# Processed by: cddbd v1.5.1PL2 Copyright (c) Steve Scherf et al.
# Submitted via: CDex 1.51
#
DISCID=41086906
DTITLE=Gary Burton and Makoto Ozone - Face To Face
DYEAR=1995
DGENRE=Jazz
TTITLE0=Opus Half
TTITLE1=Monks Dream
TTITLE2=My Romance
TTITLE3=Blue Monk
TTITLE4=Eider Down
TTITLE5=O Grande Amor
EXTD=YEAR: 1995
EXTT0=
EXTT1=
EXTT2=
EXTT3=
EXTT4=
EXTT5=
PLAYORDER=
